<svg xmlns="http://www.w3.org/2000/svg" xmlns:xlink="http://www.w3.org/1999/xlink" width="2340" zoomAndPan="magnify" viewBox="0 0 1754.88 337.499995" height="450" preserveAspectRatio="xMidYMid meet" version="1.0"><defs><g/></defs><g fill="#5d9cec" fill-opacity="1"><g transform="translate(409.415352, 246.759417)"><g><path d="M 82.140625 2.828125 C 60.640625 2.828125 43.535156 -2.867188 30.828125 -14.265625 C 18.117188 -25.671875 11.765625 -43.207031 11.765625 -66.875 L 11.765625 -152.5 L 54.46875 -152.5 L 54.46875 -67.75 C 54.46875 -56.863281 57.046875 -48.734375 62.203125 -43.359375 C 67.359375 -37.984375 74.144531 -35.296875 82.5625 -35.296875 C 91.132812 -35.296875 98 -37.875 103.15625 -43.03125 C 108.3125 -48.1875 110.890625 -56.066406 110.890625 -66.671875 L 110.890625 -152.5 L 153.59375 -152.5 L 153.59375 -67.96875 C 153.59375 -55.769531 151.882812 -45.203125 148.46875 -36.265625 C 145.050781 -27.335938 140.253906 -19.96875 134.078125 -14.15625 C 127.910156 -8.351562 120.394531 -4.070312 111.53125 -1.3125 C 102.675781 1.445312 92.878906 2.828125 82.140625 2.828125 Z M 82.140625 2.828125 "/></g></g></g><g fill="#5d9cec" fill-opacity="1"><g transform="translate(585.440017, 246.759417)"><g><path d="M 13.5 0 L 13.5 -152.5 L 52.9375 -152.5 L 115.6875 -71.890625 L 115.6875 -152.5 L 157.515625 -152.5 L 157.515625 0 L 120.6875 0 L 55.34375 -83.65625 L 55.34375 0 Z M 13.5 0 "/></g></g></g><g fill="#5d9cec" fill-opacity="1"><g transform="translate(767.3467, 246.759417)"><g><path d="M 13.5 0 L 13.5 -152.5 L 72.546875 -152.5 C 86.054688 -152.5 98.144531 -150.609375 108.8125 -146.828125 C 119.488281 -143.054688 128.492188 -137.863281 135.828125 -131.25 C 143.171875 -124.644531 148.765625 -116.695312 152.609375 -107.40625 C 156.460938 -98.113281 158.390625 -88.019531 158.390625 -77.125 L 158.390625 -76.6875 C 158.390625 -65.789062 156.425781 -55.625 152.5 -46.1875 C 148.582031 -36.75 142.914062 -28.613281 135.5 -21.78125 C 128.09375 -14.957031 119.015625 -9.617188 108.265625 -5.765625 C 97.523438 -1.921875 85.328125 0 71.671875 0 Z M 72.984375 -115.25 L 55.765625 -115.25 L 55.765625 -37.46875 L 72.984375 -37.46875 C 85.617188 -37.46875 95.820312 -40.84375 103.59375 -47.59375 C 111.363281 -54.351562 115.25 -63.832031 115.25 -76.03125 L 115.25 -76.46875 C 115.25 -88.664062 111.363281 -98.175781 103.59375 -105 C 95.820312 -111.832031 85.617188 -115.25 72.984375 -115.25 Z M 72.984375 -115.25 "/></g></g></g><g fill="#5d9cec" fill-opacity="1"><g transform="translate(945.114169, 246.759417)"><g><path d="M 13.5 0 L 13.5 -152.5 L 85.625 -152.5 C 97.238281 -152.5 107.148438 -151.046875 115.359375 -148.140625 C 123.566406 -145.234375 130.210938 -141.238281 135.296875 -136.15625 C 139.796875 -131.65625 143.171875 -126.460938 145.421875 -120.578125 C 147.671875 -114.703125 148.796875 -108.0625 148.796875 -100.65625 L 148.796875 -100.21875 C 148.796875 -88.445312 145.925781 -78.675781 140.1875 -70.90625 C 134.457031 -63.132812 126.867188 -57.21875 117.421875 -53.15625 L 153.8125 0 L 105.21875 0 L 74.515625 -46.1875 L 55.765625 -46.1875 L 55.765625 0 Z M 55.765625 -79.296875 L 83.875 -79.296875 C 90.988281 -79.296875 96.539062 -80.929688 100.53125 -84.203125 C 104.53125 -87.472656 106.53125 -91.867188 106.53125 -97.390625 L 106.53125 -97.8125 C 106.53125 -103.914062 104.457031 -108.492188 100.3125 -111.546875 C 96.175781 -114.597656 90.625 -116.125 83.65625 -116.125 L 55.765625 -116.125 Z M 55.765625 -79.296875 "/></g></g></g><g fill="#5d9cec" fill-opacity="1"><g transform="translate(1112.642581, 246.759417)"><g><path d="M 87.140625 3.046875 C 76.242188 3.046875 66.003906 1.050781 56.421875 -2.9375 C 46.835938 -6.9375 38.523438 -12.421875 31.484375 -19.390625 C 24.441406 -26.359375 18.847656 -34.671875 14.703125 -44.328125 C 10.566406 -53.992188 8.5 -64.488281 8.5 -75.8125 L 8.5 -76.25 C 8.5 -87.289062 10.53125 -97.675781 14.59375 -107.40625 C 18.664062 -117.132812 24.222656 -125.519531 31.265625 -132.5625 C 38.304688 -139.613281 46.765625 -145.207031 56.640625 -149.34375 C 66.515625 -153.476562 77.191406 -155.546875 88.671875 -155.546875 C 104.210938 -155.546875 117.207031 -152.566406 127.65625 -146.609375 C 138.113281 -140.660156 146.6875 -133.113281 153.375 -123.96875 L 121.5625 -99.34375 C 117.207031 -104.71875 112.378906 -109.035156 107.078125 -112.296875 C 101.773438 -115.566406 95.492188 -117.203125 88.234375 -117.203125 C 82.859375 -117.203125 77.953125 -116.113281 73.515625 -113.9375 C 69.085938 -111.757812 65.273438 -108.851562 62.078125 -105.21875 C 58.890625 -101.59375 56.382812 -97.3125 54.5625 -92.375 C 52.75 -87.4375 51.84375 -82.207031 51.84375 -76.6875 L 51.84375 -76.25 C 51.84375 -70.582031 52.75 -65.242188 54.5625 -60.234375 C 56.382812 -55.222656 58.890625 -50.898438 62.078125 -47.265625 C 65.273438 -43.640625 69.085938 -40.773438 73.515625 -38.671875 C 77.953125 -36.566406 82.859375 -35.515625 88.234375 -35.515625 C 96.078125 -35.515625 102.648438 -37.21875 107.953125 -40.625 C 113.253906 -44.039062 118.15625 -48.507812 122.65625 -54.03125 L 154.46875 -31.375 C 147.34375 -21.5 138.515625 -13.289062 127.984375 -6.75 C 117.460938 -0.21875 103.847656 3.046875 87.140625 3.046875 Z M 87.140625 3.046875 "/></g></g></g><g fill="#5d9cec" fill-opacity="1"><g transform="translate(1282.785296, 246.759417)"><g><path d="M 50.765625 0 L 50.765625 -115.46875 L 5.234375 -115.46875 L 5.234375 -152.5 L 138.78125 -152.5 L 138.78125 -115.46875 L 93.03125 -115.46875 L 93.03125 0 Z M 50.765625 0 "/></g></g></g><g fill="#5d9cec" fill-opacity="1"><g transform="translate(1437.460434, 246.759417)"><g><path d="M 13.5 0 L 13.5 -152.5 L 85.625 -152.5 C 97.238281 -152.5 107.148438 -151.046875 115.359375 -148.140625 C 123.566406 -145.234375 130.210938 -141.238281 135.296875 -136.15625 C 139.796875 -131.65625 143.171875 -126.460938 145.421875 -120.578125 C 147.671875 -114.703125 148.796875 -108.0625 148.796875 -100.65625 L 148.796875 -100.21875 C 148.796875 -88.445312 145.925781 -78.675781 140.1875 -70.90625 C 134.457031 -63.132812 126.867188 -57.21875 117.421875 -53.15625 L 153.8125 0 L 105.21875 0 L 74.515625 -46.1875 L 55.765625 -46.1875 L 55.765625 0 Z M 55.765625 -79.296875 L 83.875 -79.296875 C 90.988281 -79.296875 96.539062 -80.929688 100.53125 -84.203125 C 104.53125 -87.472656 106.53125 -91.867188 106.53125 -97.390625 L 106.53125 -97.8125 C 106.53125 -103.914062 104.457031 -108.492188 100.3125 -111.546875 C 96.175781 -114.597656 90.625 -116.125 83.65625 -116.125 L 55.765625 -116.125 Z M 55.765625 -79.296875 "/></g></g></g><g fill="#5d9cec" fill-opacity="1"><g transform="translate(1604.988847, 246.759417)"><g><path d="M 13.5 0 L 13.5 -152.5 L 55.765625 -152.5 L 55.765625 -37.03125 L 129.625 -37.03125 L 129.625 0 Z M 13.5 0 "/></g></g></g><path fill="#5d9cec" d="M 90.53125 320.410156 L 206.449219 246.890625 C 231.207031 231.183594 238.605469 198.09375 222.902344 173.335938 L 149.347656 57.417969 C 133.644531 32.660156 100.550781 25.261719 75.796875 40.964844 C 51.070312 56.667969 43.671875 89.761719 59.34375 114.488281 L 104.359375 185.417969 L 33.429688 230.4375 C 8.671875 246.140625 1.273438 279.230469 16.976562 303.988281 C 32.679688 328.714844 65.773438 336.113281 90.53125 320.410156 Z M 222.902344 173.335938 Z M 222.902344 173.335938 " fill-opacity="0.8" fill-rule="evenodd"/><path fill="#4a89dc" d="M 257.992188 16.582031 L 142.074219 90.105469 C 117.316406 105.808594 109.917969 138.902344 125.621094 163.65625 L 199.175781 279.574219 C 214.878906 304.332031 247.96875 311.730469 272.726562 296.027344 C 297.453125 280.324219 304.851562 247.230469 289.179688 222.507812 L 244.160156 151.574219 L 315.089844 106.558594 C 339.847656 90.855469 347.246094 57.761719 331.542969 33.003906 C 315.839844 8.277344 282.75 0.878906 257.992188 16.582031 Z M 125.621094 163.65625 Z M 125.621094 163.65625 " fill-opacity="0.8" fill-rule="evenodd"/></svg>